<svg width="25" height="25" viewBox="0 0 25 25" fill="none" xmlns="http://www.w3.org/2000/svg">
<path d="M7.38538 15.4564H9.38538C9.38538 16.5364 10.7554 17.4564 12.3854 17.4564C14.0154 17.4564 15.3854 16.5364 15.3854 15.4564C15.3854 14.3564 14.3454 13.9564 12.1454 13.4264C10.0254 12.8964 7.38538 12.2364 7.38538 9.45642C7.38538 7.66642 8.85538 6.14642 10.8854 5.63642V3.45642H13.8854V5.63642C15.9154 6.14642 17.3854 7.66642 17.3854 9.45642H15.3854C15.3854 8.37642 14.0154 7.45642 12.3854 7.45642C10.7554 7.45642 9.38538 8.37642 9.38538 9.45642C9.38538 10.5564 10.4254 10.9564 12.6254 11.4864C14.7454 12.0164 17.3854 12.6764 17.3854 15.4564C17.3854 17.2464 15.9154 18.7664 13.8854 19.2764V21.4564H10.8854V19.2764C8.85538 18.7664 7.38538 17.2464 7.38538 15.4564Z" fill="#F4F4F4"/>
</svg>
